{
    "asset" : {
        "generator" : "Khronos glTF Blender I/O v3.2.43",
        "version" : "2.0"
    },
    "scene" : 0,
    "scenes" : [
        {
            "name" : "Scene",
            "nodes" : [
                0
            ]
        }
    ],
    "nodes" : [
        {
            "mesh" : 0,
            "name" : "Cube"
        }
    ],
    "materials" : [
        {
            "doubleSided" : true,
            "name" : "base",
            "pbrMetallicRoughness" : {
                "baseColorFactor" : [
                    0.06156529113650322,
                    0.05911503732204437,
                    0.09083110839128494,
                    1
                ],
                "metallicFactor" : 0,
                "roughnessFactor" : 0.7772727012634277
            }
        },
        {
            "name" : "outline",
            "pbrMetallicRoughness" : {}
        }
    ],
    "meshes" : [
        {
            "name" : "Cube.001",
            "primitives" : [
                {
                    "attributes" : {
                        "POSITION" : 0,
                        "NORMAL" : 1
                    },
                    "indices" : 2,
                    "material" : 0
                },
                {
                    "attributes" : {
                        "POSITION" : 3,
                        "NORMAL" : 4
                    },
                    "indices" : 5,
                    "material" : 1
                }
            ]
        }
    ],
    "accessors" : [
        {
            "bufferView" : 0,
            "componentType" : 5126,
            "count" : 2184,
            "max" : [
                1.6806286573410034,
                1.4569263458251953,
                1.5942331552505493
            ],
            "min" : [
                -1.6438102722167969,
                -1.4782336950302124,
                -1.636845588684082
            ],
            "type" : "VEC3"
        },
        {
            "bufferView" : 1,
            "componentType" : 5126,
            "count" : 2184,
            "type" : "VEC3"
        },
        {
            "bufferView" : 2,
            "componentType" : 5123,
            "count" : 3276,
            "type" : "SCALAR"
        },
        {
            "bufferView" : 3,
            "componentType" : 5126,
            "count" : 2184,
            "max" : [
                1.7211016416549683,
                1.4857938289642334,
                1.6303776502609253
            ],
            "min" : [
                -1.6841773986816406,
                -1.5071011781692505,
                -1.6776542663574219
            ],
            "type" : "VEC3"
        },
        {
            "bufferView" : 4,
            "componentType" : 5126,
            "count" : 2184,
            "type" : "VEC3"
        },
        {
            "bufferView" : 5,
            "componentType" : 5123,
            "count" : 3276,
            "type" : "SCALAR"
        }
    ],
    "bufferViews" : [
        {
            "buffer" : 0,
            "byteLength" : 26208,
            "byteOffset" : 0
        },
        {
            "buffer" : 0,
            "byteLength" : 26208,
            "byteOffset" : 26208
        },
        {
            "buffer" : 0,
            "byteLength" : 6552,
            "byteOffset" : 52416
        },
        {
            "buffer" : 0,
            "byteLength" : 26208,
            "byteOffset" : 58968
        },
        {
            "buffer" : 0,
            "byteLength" : 26208,
            "byteOffset" : 85176
        },
        {
            "buffer" : 0,
            "byteLength" : 6552,
            "byteOffset" : 111384
        }
    ],
    "buffers" : [
        {
            "byteLength" : 117936,
            "uri" : "data:application/octet-stream;base64,"
        }
    ]
}
